<svg width="466" height="512" viewBox="0 0 466 512" fill="none" xmlns="http://www.w3.org/2000/svg">
<path id="Vector" d="M191.793 501.006L41.284 414.205C15.819 399.52 0 372.133 0 342.733V169.266C0 139.866 15.819 112.479 41.285 97.794L191.793 10.993C217.21 -3.664 248.791 -3.665 274.207 10.993L424.716 97.794C450.181 112.48 466 139.867 466 169.266V342.733C466 372.133 450.181 399.52 424.715 414.205L274.207 501.006C248.794 515.662 217.214 515.667 191.793 501.006ZM211.774 45.651L61.266 132.452C48.148 140.016 40 154.123 40 169.266V342.733C40 357.877 48.148 371.983 61.265 379.548L211.774 466.349C224.867 473.901 241.132 473.901 254.225 466.349L404.734 379.548C417.852 371.984 426 357.877 426 342.733V169.266C426 154.122 417.852 140.016 404.735 132.451L254.226 45.651C241.138 38.102 224.868 38.099 211.774 45.651ZM139.713 334.132L213.994 271.269C223.444 263.272 223.417 248.704 213.994 240.729L139.713 177.866C131.282 170.73 118.661 171.781 111.526 180.215C104.391 188.649 105.443 201.27 113.875 208.406L170.113 256L113.875 303.593C105.443 310.729 104.392 323.35 111.526 331.784C118.678 340.236 131.302 341.251 139.713 334.132ZM359.206 318.862C359.206 307.814 350.252 298.859 339.206 298.859H249.211C238.165 298.859 229.211 307.814 229.211 318.862C229.211 329.91 238.165 338.865 249.211 338.865H339.206C350.251 338.865 359.206 329.91 359.206 318.862Z" fill="url(#paint0_linear)"/>
<defs>
<linearGradient id="paint0_linear" x1="0" y1="256" x2="466" y2="256" gradientUnits="userSpaceOnUse">
<stop stop-color="#E0165F" stop-opacity="0.58"/>
<stop offset="0.0001" stop-color="#474853"/>
<stop offset="1" stop-color="#F52E69" stop-opacity="0.74"/>
</linearGradient>
</defs>
</svg>
