<svg width="512" height="512" viewBox="0 0 512 512" fill="none" xmlns="http://www.w3.org/2000/svg">
<g id="code (1) 1" clip-path="url(#clip0)">
<path id="Vector" d="M214.793 501.006L64.284 414.205C38.819 399.52 23 372.133 23 342.733V169.266C23 139.866 38.819 112.479 64.285 97.794L214.793 10.993C240.21 -3.664 271.791 -3.665 297.207 10.993L447.716 97.794C473.181 112.48 489 139.867 489 169.266V342.733C489 372.133 473.181 399.52 447.715 414.205L297.207 501.006C271.794 515.662 240.214 515.667 214.793 501.006ZM234.774 45.651L84.266 132.452C71.148 140.016 63 154.123 63 169.266V342.733C63 357.877 71.148 371.983 84.265 379.548L234.774 466.349C247.867 473.901 264.132 473.901 277.225 466.349L427.734 379.548C440.852 371.984 449 357.877 449 342.733V169.266C449 154.122 440.852 140.016 427.735 132.451L277.226 45.651C264.138 38.102 247.868 38.099 234.774 45.651ZM162.713 334.132L236.994 271.269C246.444 263.272 246.417 248.704 236.994 240.729L162.713 177.866C154.282 170.73 141.661 171.781 134.526 180.215C127.391 188.649 128.443 201.27 136.875 208.406L193.113 256L136.875 303.593C128.443 310.729 127.392 323.35 134.526 331.784C141.678 340.236 154.302 341.251 162.713 334.132ZM382.206 318.862C382.206 307.814 373.252 298.859 362.206 298.859H272.211C261.165 298.859 252.211 307.814 252.211 318.862C252.211 329.91 261.165 338.865 272.211 338.865H362.206C373.251 338.865 382.206 329.91 382.206 318.862Z" fill="url(#paint0_linear)"/>
</g>
<defs>
<linearGradient id="paint0_linear" x1="23" y1="256" x2="489" y2="256" gradientUnits="userSpaceOnUse">
<stop stop-color="#E0165F"/>
<stop offset="0.0001" stop-color="#474853"/>
<stop offset="1" stop-color="#F52E69"/>
</linearGradient>
<clipPath id="clip0">
<rect width="512" height="512" fill="white"/>
</clipPath>
</defs>
</svg>
