<svg width="601" height="719" viewBox="0 0 601 719" fill="none" xmlns="http://www.w3.org/2000/svg">
<g id="superwoman">
<g id="flyflag">
<path id="Vector" d="M295.052 174.473C295.052 174.473 400.172 226.671 419.022 219.421C437.871 212.171 444.395 147.649 444.395 147.649L366.824 133.15L295.052 174.473Z" fill="#3F3D56"/>
<path id="Vector_2" d="M446.208 91.464C446.208 91.464 335.659 47.0146 239.964 4.24161C239.964 4.24161 189.941 -8.08279 163.842 15.1161C163.842 15.1161 185.591 12.2162 185.591 24.5406C185.591 24.5406 204.44 49.1895 145.718 53.5392C104.822 56.5686 88.5397 81.047 82.4226 95.629C77.6469 107.335 69.2519 117.206 58.4649 123.799C44.3302 132.247 23.8447 138.462 0 127.486C0 127.486 1.35558 129.57 3.92694 133.042C49.9652 195.214 221.408 249.323 281.949 201.16C319.364 171.396 378.677 133.775 421.196 152.724C487.893 182.448 500.218 169.398 500.218 169.398L503.118 161.424C503.118 161.424 438.596 144.024 437.146 121.551C435.696 99.077 446.208 91.464 446.208 91.464Z" fill="#3F3D56"/>
</g>
<g id="body">
<path id="Vector_3" d="M381.323 352.815C381.323 352.815 378.424 415.887 397.998 414.437C417.572 412.987 397.998 354.99 397.998 354.99L381.323 352.815Z" fill="#E9D3F0"/>
<path id="Vector_4" opacity="0.1" d="M461.795 105.601C461.795 105.601 466.144 133.15 458.17 136.775C450.195 140.4 445.12 143.3 445.12 143.3L463.244 155.624L496.593 157.799L505.292 151.274L513.267 144.024C513.267 144.024 500.218 141.125 500.218 134.6C500.218 128.075 499.493 108.501 499.493 108.501L461.795 105.601Z" fill="black"/>
<path id="Vector_5" d="M416.122 363.689C416.122 363.689 395.098 431.111 395.098 480.409C395.098 480.409 360.299 558.705 361.749 597.128L353.05 650.051L365.374 654.4L374.799 646.426C374.799 646.426 377.699 618.152 387.123 604.378C396.548 590.603 418.297 525.356 418.297 525.356C418.297 525.356 476.294 403.562 474.119 386.163C471.944 368.764 416.122 363.689 416.122 363.689Z" fill="#3F3D56"/>
<path id="Vector_6" d="M544.441 348.465C544.441 348.465 558.215 354.989 538.641 470.984C538.641 470.984 549.515 547.83 540.091 589.878L538.641 631.926H523.417L520.517 627.577C520.517 627.577 519.792 589.878 514.717 579.729C509.642 569.579 505.293 510.857 505.293 510.857C505.293 510.857 482.094 391.238 487.168 381.088C492.243 370.939 544.441 348.465 544.441 348.465Z" fill="#3F3D56"/>
<path id="Vector_7" d="M350.875 637.726C350.875 637.726 355.95 649.326 365.374 646.426C374.799 643.526 376.974 643.526 376.974 643.526C376.974 643.526 370.449 676.874 372.624 692.824C374.799 708.773 371.174 718.922 356.675 718.922C342.175 718.922 340 701.523 340 701.523L346.525 660.2L350.875 637.726Z" fill="#EE4C7C"/>
<path id="Vector_8" d="M517.617 619.602C517.617 619.602 522.692 629.751 530.666 627.577C538.641 625.402 541.541 621.777 541.541 621.777C541.541 621.777 540.816 644.251 543.716 654.4C546.616 664.55 553.14 693.548 537.916 694.998C533.735 695.506 529.501 694.652 525.844 692.562C522.187 690.473 519.302 687.259 517.617 683.399V619.602Z" fill="#EE4C7C"/>
<path id="Vector_9" d="M481.369 124.45C498.986 124.45 513.267 110.169 513.267 92.552C513.267 74.935 498.986 60.653 481.369 60.653C463.752 60.653 449.47 74.935 449.47 92.552C449.47 110.169 463.752 124.45 481.369 124.45Z" fill="#E9D3F0"/>
<path id="Vector_10" d="M424.821 229.57C425.313 229.48 425.313 229.48 425.313 229.479V229.477L425.311 229.467L425.304 229.429L425.276 229.276L425.166 228.681C425.069 228.159 424.928 227.394 424.747 226.418C424.384 224.466 423.863 221.674 423.228 218.309C421.96 211.579 420.237 202.561 418.425 193.406C416.612 184.252 414.708 174.959 413.075 167.68C412.259 164.042 411.51 160.902 410.873 158.533C410.554 157.349 410.263 156.352 410.003 155.578C409.75 154.824 409.511 154.231 409.288 153.897C409.25 153.84 409.242 153.798 409.243 153.761C409.244 153.718 409.259 153.647 409.32 153.542C409.449 153.32 409.733 153.034 410.215 152.695C411.169 152.026 412.716 151.275 414.701 150.479C418.658 148.891 424.22 147.174 429.891 145.587C435.558 144.002 441.317 142.552 445.66 141.498C447.831 140.971 449.648 140.543 450.922 140.247C451.559 140.099 452.06 139.984 452.402 139.906C452.491 139.886 452.569 139.868 452.636 139.853C452.678 139.898 452.725 139.949 452.779 140.006C453.008 140.248 453.351 140.592 453.817 141.01C454.748 141.846 456.167 142.976 458.133 144.173C462.067 146.568 468.185 149.224 476.957 150.32H476.958C482.142 150.96 487.403 150.517 492.407 149.02C497.365 147.536 501.965 145.049 505.921 141.714C508.103 141.428 511.259 141.781 514.826 142.507C518.454 143.244 522.45 144.354 526.17 145.508C529.888 146.662 533.324 147.858 535.83 148.765C537.083 149.219 538.103 149.6 538.81 149.868C539.15 149.997 539.417 150.099 539.603 150.171L539.607 150.301C539.617 150.601 539.632 151.044 539.651 151.613C539.687 152.751 539.738 154.393 539.795 156.408C539.908 160.439 540.044 165.965 540.135 171.943C540.316 183.912 540.315 197.656 539.593 204.872C538.434 216.468 533.551 222.378 529.778 226.945C528.889 228.02 528.062 229.021 527.36 230.005C526.396 231.354 525.381 234.015 524.496 237.372C523.606 240.752 522.831 244.9 522.376 249.274C521.468 257.99 521.813 267.726 525.15 274.027C526.761 277.071 529.151 283.199 531.861 290.794C534.566 298.377 537.577 307.389 540.431 316.177C546.139 333.755 551.212 350.423 551.935 352.952C551.966 353.064 551.949 353.307 551.687 353.744C551.435 354.163 551.011 354.671 550.414 355.261C549.224 356.438 547.423 357.866 545.181 359.465C540.703 362.657 534.533 366.477 528.147 370.236C518.635 375.836 508.696 381.27 503.176 384.288C501.278 385.326 499.902 386.078 499.245 386.454C496.88 387.805 493.779 387.662 490.74 386.858C487.718 386.058 484.862 384.631 483.076 383.559C482.509 383.22 481.936 383.15 481.377 383.313C480.845 383.468 480.369 383.822 479.941 384.244C479.296 384.88 478.654 385.784 478.015 386.684C477.82 386.959 477.625 387.233 477.431 387.499C476.568 388.68 475.694 389.729 474.722 390.282C474.247 390.552 473.76 390.696 473.245 390.684C472.73 390.672 472.148 390.504 471.484 390.089C470.711 389.605 469.272 388.989 467.385 388.282C465.483 387.569 463.086 386.748 460.364 385.858C454.921 384.077 448.165 382.014 441.46 379.976C440.905 379.807 440.35 379.638 439.797 379.47C433.66 377.605 427.662 375.782 422.845 374.235C420.219 373.392 417.949 372.632 416.203 371.994C414.433 371.348 413.259 370.846 412.774 370.523C412.605 370.41 412.42 370.192 412.242 369.818C412.066 369.447 411.913 368.957 411.789 368.346C411.541 367.123 411.422 365.483 411.434 363.499C411.456 359.537 411.996 354.288 412.99 348.458C414.979 336.797 418.774 322.89 423.822 312.434C426.402 307.088 427.766 299.215 428.379 290.469C428.992 281.707 428.855 272.012 428.402 262.984C427.948 253.955 427.177 245.586 426.519 239.474C426.19 236.418 425.89 233.925 425.671 232.197C425.562 231.332 425.474 230.659 425.412 230.201C425.381 229.972 425.358 229.797 425.341 229.68L425.323 229.546L425.318 229.512L425.317 229.504V229.501C425.316 229.501 425.316 229.501 424.821 229.57ZM424.821 229.57L425.313 229.48L425.315 229.49L425.316 229.501L424.821 229.57Z" fill="#F2A2CA" stroke="#FB75E7"/>
<path id="Vector_11" d="M410.47 151.933C410.47 151.933 404.522 156.349 402.347 165.773C400.172 175.198 397.273 250.594 397.273 250.594C397.273 250.594 370.449 354.265 376.249 356.439C382.048 358.614 398.723 362.964 400.897 360.789C403.072 358.614 427.721 270.894 425.546 261.469C423.371 252.044 428.446 224.496 428.446 224.496L410.47 151.933Z" fill="#F2A2CA"/>
<path id="Vector_12" d="M544.441 286.843C544.441 286.843 505.293 267.269 500.943 280.318C496.593 293.367 542.266 307.142 542.266 307.142C542.266 307.142 558.215 301.342 558.215 297.717C558.215 294.092 544.441 286.843 544.441 286.843Z" fill="#E9D3F0"/>
<path id="Vector_13" d="M532.116 152.724L540.091 149.824C540.091 149.824 544.441 146.924 549.515 157.799C554.59 168.673 609.688 232.47 599.538 252.769C589.388 273.068 556.04 314.391 554.59 311.492C553.14 308.592 536.466 286.843 539.366 284.668C542.266 282.493 575.614 252.769 571.264 248.42C566.915 244.07 548.79 207.097 538.641 205.647C528.491 204.197 532.116 152.724 532.116 152.724Z" fill="#F2A2CA"/>
<path id="Vector_14" d="M461.795 105.601C461.795 105.601 466.144 133.15 458.17 136.775C450.195 140.4 445.12 143.3 445.12 143.3L463.244 155.624L496.593 157.799L505.292 151.274L513.267 144.024C513.267 144.024 500.218 141.125 500.218 134.6C500.218 128.075 499.493 108.501 499.493 108.501L461.795 105.601Z" fill="#E9D3F0"/>
<path id="Vector_15" d="M452.185 39.5587C448.363 42.7096 444.738 46.2407 442.361 50.5868C441.115 53.0244 440.073 55.5611 439.246 58.1708C436.314 66.6078 429.027 75.1538 432.111 83.5358C432.991 85.9278 434.364 88.4498 433.575 90.8738C432.874 93.0258 430.711 94.2817 429.147 95.9177C425.79 99.4287 425.225 104.698 425.02 109.552C424.645 118.441 429.532 128.916 435.438 135.57C436.72 136.822 437.908 138.167 438.992 139.594C439.723 140.732 440.201 142.014 440.393 143.352C440.585 144.691 440.487 146.055 440.106 147.353L448.709 145.557C449.019 148.734 449.116 151.927 448.999 155.116C451.039 155.34 453.094 154.855 454.818 153.741C456.542 152.627 457.829 150.953 458.462 149.001C458.949 151.275 459.744 153.472 460.826 155.531C463.349 152.375 465.285 148.79 466.54 144.949C468.186 140.028 468.54 134.767 467.566 129.671C466.655 125.949 465.415 122.315 463.862 118.811C460.822 111.129 458.339 103.239 455.86 95.3577C454.572 91.2638 453.268 87.0378 453.659 82.7638L456.716 82.4318C456.749 80.7438 457.076 79.0747 457.68 77.4977C459.472 77.8767 461.196 78.5258 462.793 79.4218L466.317 70.4798C468.643 72.8918 471.981 73.9838 475.177 74.9898L487.326 78.8158L487.4 76.4108C492.527 80.9508 498.368 84.6138 504.687 87.2548C504.33 86.8238 504.069 86.3217 503.922 85.7817C503.775 85.2427 503.745 84.6778 503.833 84.1258C506.827 89.4888 505.63 96.1697 503.782 102.028C501.934 107.885 499.483 113.849 500.227 119.946C500.784 124.506 503.119 128.867 502.686 133.44C502.473 135.692 501.592 137.835 501.318 140.081C500.665 145.436 503.481 150.536 506.199 155.197L511.484 147.938C513.419 145.281 515.413 142.567 518.152 140.751C520.963 138.887 524.448 138.051 526.898 135.732C531.272 131.593 530.717 124.541 529.294 118.69C528.538 115.579 527.623 112.425 527.901 109.235C528.373 103.829 532.129 99.3558 534.245 94.3588C535.753 90.7148 536.407 86.7748 536.156 82.8388C535.905 78.9038 534.756 75.0778 532.798 71.6558C530.172 67.1528 526.205 63.5258 523.731 58.9378C521.269 54.3706 520.329 48.9363 516.955 44.9946C515.307 43.2009 513.39 41.6741 511.274 40.4686C501.683 34.7063 490.911 31.192 479.767 30.1898C469.199 29.0849 460.284 32.8829 452.185 39.5587Z" fill="#A4A8AB"/>
</g>
</g>
</svg>
